<?xml version="1.0" encoding="utf-8"?>
<!-- Generator: Adobe Illustrator 18.0.0, SVG Export Plug-In . SVG Version: 6.00 Build 0)  -->
<!DOCTYPE svg PUBLIC "-//W3C//DTD SVG 1.1//EN" "http://www.w3.org/Graphics/SVG/1.1/DTD/svg11.dtd">
<svg version="1.1" xmlns="http://www.w3.org/2000/svg" xmlns:xlink="http://www.w3.org/1999/xlink" x="0px" y="0px"
	 viewBox="0 0 92 56" enable-background="new 0 0 92 56" xml:space="preserve">
<g id="eagle">
	<g>
		<g>
			<g>
				<path fill="#FFFFFF" d="M11.9,0L0,56h78.8l12-56H11.9z M10.4,13.7L10.4,13.7H47c0.6,0,19.6,0,20,3.8H34.1L39.2,33
					c5.9-2.8,20.2-8.7,28.9-9c3.6-0.2,5.2,0.5,4.4,0.9c-0.4,0.2-4,0.8-6.8,1.4c-4.9,1.2-5.2,1.2-10.2,3c-5.8,2-10.6,4.3-17.6,7.6
					L1.7,54.7L10.4,13.7z M74.3,20.3c-2.1-0.3-10.7,0.3-12.9,0.3c-0.5,0-1.9,0.2-1.9-0.3c0-0.3,0.5-0.3,1.5-0.4
					c1.1-0.1,4-0.6,4.9-1.1c0.3-0.2,0.9-0.6,1.2-0.9c0.2-0.2,0.2-0.4,0.6-0.4l4.6,0c2.9,0,4.6,0.4,4.3,2.8c-0.1,1.2-1.8,4.4-2.4,5.4
					c-0.2,0.4-0.8,0.7-0.6,0C74,23.7,75.9,20.5,74.3,20.3z M77.7,54.6H6.9c0,0,67.3-26.2,68.1-26.8c0,0,6-7.9,2.4-11.3
					c-1.1-1-2.8-1.1-8.8-1.1c0,0-0.2-2.3-9.6-4.5C58,10.8,13,1.4,13,1.4h76L77.7,54.6z"/>
			</g>
		</g>
	</g>
</g>
<g id="_xAE_">
	<g>
		<g>
			<path fill="#FFFFFF" d="M89.4,50.5c0-0.9-0.5-1.3-1.7-1.3h-2v4.7h0.9v-2h0.6l1.3,2h1l-1.4-2.1C88.9,51.7,89.4,51.3,89.4,50.5z
				 M87.4,51.2h-0.7v-1.4h0.9c0.5,0,1,0.1,1,0.7C88.5,51.1,88,51.2,87.4,51.2z"/>
		</g>
		<g>
			<path fill="#FFFFFF" d="M87.5,47C85,47,83,49,83,51.5c0,2.5,2,4.5,4.5,4.5c2.5,0,4.5-2,4.5-4.5C92,49,90,47,87.5,47z M87.5,55
				c-1.9,0-3.5-1.6-3.5-3.5s1.6-3.5,3.5-3.5s3.5,1.6,3.5,3.5S89.4,55,87.5,55z"/>
		</g>
	</g>
</g>
</svg>
